{
  "asset" : {
    "version" : "2.0",
    "generator" : "OSRS-Environment-Exporter"
  },
  "scene" : 0,
  "scenes" : [ {
    "nodes" : [ 3 ]
  } ],
  "nodes" : [ {
    "mesh" : 0
  }, {
    "mesh" : 1
  }, {
    "mesh" : 2
  }, {
    "children" : [ 0, 1, 2 ],
    "name" : "region_0_0_8494"
  } ],
  "meshes" : [ {
    "primitives" : [ {
      "attributes" : {
        "POSITION" : 0,
        "COLOR_0" : 1
      },
      "material" : 0,
      "mode" : 4
    } ]
  }, {
    "primitives" : [ {
      "attributes" : {
        "POSITION" : 2,
        "TEXCOORD_0" : 3
      },
      "material" : 1,
      "mode" : 4
    } ]
  }, {
    "primitives" : [ {
      "attributes" : {
        "POSITION" : 4,
        "TEXCOORD_0" : 5
      },
      "material" : 2,
      "mode" : 4
    } ]
  } ],
  "materials" : [ {
    "name" : "rs_untextured",
    "pbrMetallicRoughness" : {
      "metallicFactor" : 0.0
    },
    "doubleSided" : true,
    "alphaMode" : "MASK",
    "alphaCutoff" : 0.2,
    "extensions" : {
      "KHR_materials_specular" : {
        "specularFactor" : 0.0,
        "specularColorFactor" : [ 0.0, 0.0, 0.0 ]
      }
    }
  }, {
    "name" : "rs_texture_1",
    "pbrMetallicRoughness" : {
      "baseColorTexture" : {
        "index" : 0
      },
      "metallicFactor" : 0.0
    },
    "doubleSided" : true,
    "alphaMode" : "MASK",
    "alphaCutoff" : 0.2,
    "extensions" : {
      "KHR_materials_specular" : {
        "specularFactor" : 0.0,
        "specularColorFactor" : [ 0.0, 0.0, 0.0 ]
      }
    }
  }, {
    "name" : "rs_texture_19",
    "pbrMetallicRoughness" : {
      "baseColorTexture" : {
        "index" : 1
      },
      "metallicFactor" : 0.0
    },
    "doubleSided" : true,
    "alphaMode" : "MASK",
    "alphaCutoff" : 0.2,
    "extensions" : {
      "KHR_materials_specular" : {
        "specularFactor" : 0.0,
        "specularColorFactor" : [ 0.0, 0.0, 0.0 ]
      }
    }
  } ],
  "textures" : [ {
    "source" : 0
  }, {
    "source" : 1
  } ],
  "images" : [ {
    "uri" : "./Textures/1.png"
  }, {
    "uri" : "./Textures/19.png"
  } ],
  "accessors" : [ {
    "bufferView" : 0,
    "count" : 979083,
    "min" : [ 0.0, -407.85938, -62.0 ],
    "max" : [ 64.91406, 13.4453125, -0.0 ],
    "byteOffset" : 0,
    "type" : "VEC3",
    "componentType" : 5126
  }, {
    "bufferView" : 1,
    "count" : 979083,
    "min" : [ 0.0, 0.0, 0.0, 0.60784316 ],
    "max" : [ 0.92156863, 0.8745098, 0.8980392, 1.0 ],
    "byteOffset" : 0,
    "type" : "VEC4",
    "componentType" : 5126
  }, {
    "bufferView" : 2,
    "count" : 8256,
    "min" : [ 0.0, -0.0, -64.0 ],
    "max" : [ 64.0, -0.0, -25.0 ],
    "byteOffset" : 0,
    "type" : "VEC3",
    "componentType" : 5126
  }, {
    "bufferView" : 3,
    "count" : 8256,
    "min" : [ 0.0, 0.0 ],
    "max" : [ 1.0, 1.0 ],
    "byteOffset" : 0,
    "type" : "VEC2",
    "componentType" : 5126
  }, {
    "bufferView" : 4,
    "count" : 36,
    "min" : [ 57.273438, 0.2109375, -39.71875 ],
    "max" : [ 57.671875, 0.2890625, -39.320312 ],
    "byteOffset" : 0,
    "type" : "VEC3",
    "componentType" : 5126
  }, {
    "bufferView" : 5,
    "count" : 36,
    "min" : [ -0.0, -0.0 ],
    "max" : [ 1.0, 1.0 ],
    "byteOffset" : 0,
    "type" : "VEC2",
    "componentType" : 5126
  } ],
  "bufferViews" : [ {
    "buffer" : 0,
    "byteOffset" : 0,
    "byteLength" : 11748996,
    "target" : 34962
  }, {
    "buffer" : 0,
    "byteOffset" : 11748996,
    "byteLength" : 15665328,
    "target" : 34962
  }, {
    "buffer" : 0,
    "byteOffset" : 27414324,
    "byteLength" : 99072,
    "target" : 34962
  }, {
    "buffer" : 0,
    "byteOffset" : 27513396,
    "byteLength" : 66048,
    "target" : 34962
  }, {
    "buffer" : 0,
    "byteOffset" : 27579444,
    "byteLength" : 432,
    "target" : 34962
  }, {
    "buffer" : 0,
    "byteOffset" : 27579876,
    "byteLength" : 288,
    "target" : 34962
  } ],
  "buffers" : [ {
    "uri" : "data.bin",
    "byteLength" : 27580164
  } ],
  "extensionsUsed" : [ "KHR_materials_specular" ]
}