{
  "asset" : {
    "version" : "2.0",
    "generator" : "OSRS-Environment-Exporter"
  },
  "scene" : 0,
  "scenes" : [ {
    "nodes" : [ 5 ]
  } ],
  "nodes" : [ {
    "mesh" : 0
  }, {
    "mesh" : 1
  }, {
    "mesh" : 2
  }, {
    "mesh" : 3
  }, {
    "mesh" : 4
  }, {
    "children" : [ 0, 1, 2, 3, 4 ],
    "name" : "region_0_0_9263"
  } ],
  "meshes" : [ {
    "primitives" : [ {
      "attributes" : {
        "POSITION" : 0,
        "COLOR_0" : 1
      },
      "material" : 0,
      "mode" : 4
    } ]
  }, {
    "primitives" : [ {
      "attributes" : {
        "POSITION" : 2,
        "TEXCOORD_0" : 3
      },
      "material" : 1,
      "mode" : 4
    } ]
  }, {
    "primitives" : [ {
      "attributes" : {
        "POSITION" : 4,
        "TEXCOORD_0" : 5
      },
      "material" : 2,
      "mode" : 4
    } ]
  }, {
    "primitives" : [ {
      "attributes" : {
        "POSITION" : 6,
        "TEXCOORD_0" : 7
      },
      "material" : 4,
      "mode" : 4
    } ]
  }, {
    "primitives" : [ {
      "attributes" : {
        "POSITION" : 8,
        "TEXCOORD_0" : 9
      },
      "material" : 3,
      "mode" : 4
    } ]
  } ],
  "materials" : [ {
    "name" : "rs_untextured",
    "pbrMetallicRoughness" : {
      "metallicFactor" : 0.0
    },
    "doubleSided" : true,
    "alphaMode" : "MASK",
    "alphaCutoff" : 0.2,
    "extensions" : {
      "KHR_materials_specular" : {
        "specularFactor" : 0.0,
        "specularColorFactor" : [ 0.0, 0.0, 0.0 ]
      }
    }
  }, {
    "name" : "rs_texture_1",
    "pbrMetallicRoughness" : {
      "baseColorTexture" : {
        "index" : 0
      },
      "metallicFactor" : 0.0
    },
    "doubleSided" : true,
    "alphaMode" : "MASK",
    "alphaCutoff" : 0.2,
    "extensions" : {
      "KHR_materials_specular" : {
        "specularFactor" : 0.0,
        "specularColorFactor" : [ 0.0, 0.0, 0.0 ]
      }
    }
  }, {
    "name" : "rs_texture_8",
    "pbrMetallicRoughness" : {
      "baseColorTexture" : {
        "index" : 1
      },
      "metallicFactor" : 0.0
    },
    "doubleSided" : true,
    "alphaMode" : "MASK",
    "alphaCutoff" : 0.2,
    "extensions" : {
      "KHR_materials_specular" : {
        "specularFactor" : 0.0,
        "specularColorFactor" : [ 0.0, 0.0, 0.0 ]
      }
    }
  }, {
    "name" : "rs_texture_60",
    "pbrMetallicRoughness" : {
      "baseColorTexture" : {
        "index" : 2
      },
      "metallicFactor" : 0.0
    },
    "doubleSided" : true,
    "alphaMode" : "MASK",
    "alphaCutoff" : 0.2,
    "extensions" : {
      "KHR_materials_specular" : {
        "specularFactor" : 0.0,
        "specularColorFactor" : [ 0.0, 0.0, 0.0 ]
      }
    }
  }, {
    "name" : "rs_texture_25",
    "pbrMetallicRoughness" : {
      "baseColorTexture" : {
        "index" : 3
      },
      "metallicFactor" : 0.0
    },
    "doubleSided" : true,
    "alphaMode" : "MASK",
    "alphaCutoff" : 0.2,
    "extensions" : {
      "KHR_materials_specular" : {
        "specularFactor" : 0.0,
        "specularColorFactor" : [ 0.0, 0.0, 0.0 ]
      }
    }
  } ],
  "textures" : [ {
    "source" : 0
  }, {
    "source" : 1
  }, {
    "source" : 2
  }, {
    "source" : 3
  } ],
  "images" : [ {
    "uri" : "./Textures/1.png"
  }, {
    "uri" : "./Textures/8.png"
  }, {
    "uri" : "./Textures/60.png"
  }, {
    "uri" : "./Textures/25.png"
  } ],
  "accessors" : [ {
    "bufferView" : 0,
    "count" : 223809,
    "min" : [ 0.0, -0.0, -64.8125 ],
    "max" : [ 64.0, 285.89062, -24.5 ],
    "byteOffset" : 0,
    "type" : "VEC3",
    "componentType" : 5126
  }, {
    "bufferView" : 1,
    "count" : 223809,
    "min" : [ 0.0, 0.0, 0.0, 0.0039215684 ],
    "max" : [ 0.9882353, 0.9843137, 0.9843137, 1.0 ],
    "byteOffset" : 0,
    "type" : "VEC4",
    "componentType" : 5126
  }, {
    "bufferView" : 2,
    "count" : 15402,
    "min" : [ 0.0, -0.0, -64.0 ],
    "max" : [ 64.0, -0.0, -0.0 ],
    "byteOffset" : 0,
    "type" : "VEC3",
    "componentType" : 5126
  }, {
    "bufferView" : 3,
    "count" : 15402,
    "min" : [ 0.0, 0.0 ],
    "max" : [ 1.0, 1.0 ],
    "byteOffset" : 0,
    "type" : "VEC2",
    "componentType" : 5126
  }, {
    "bufferView" : 4,
    "count" : 1584,
    "min" : [ 28.164062, 2.609375, -64.609375 ],
    "max" : [ 61.929688, 4.9453125, -35.390625 ],
    "byteOffset" : 0,
    "type" : "VEC3",
    "componentType" : 5126
  }, {
    "bufferView" : 5,
    "count" : 1584,
    "min" : [ 0.0, -0.0 ],
    "max" : [ 1.0055236, 2.4066572 ],
    "byteOffset" : 0,
    "type" : "VEC2",
    "componentType" : 5126
  }, {
    "bufferView" : 6,
    "count" : 315,
    "min" : [ 29.0, 0.625, -59.0 ],
    "max" : [ 39.0, 0.78125, -49.0 ],
    "byteOffset" : 0,
    "type" : "VEC3",
    "componentType" : 5126
  }, {
    "bufferView" : 7,
    "count" : 315,
    "min" : [ 0.0, 0.0 ],
    "max" : [ 1.0, 1.0 ],
    "byteOffset" : 0,
    "type" : "VEC2",
    "componentType" : 5126
  }, {
    "bufferView" : 8,
    "count" : 684,
    "min" : [ 28.34375, 3.0078125, -64.42969 ],
    "max" : [ 61.851562, 5.34375, -35.570312 ],
    "byteOffset" : 0,
    "type" : "VEC3",
    "componentType" : 5126
  }, {
    "bufferView" : 9,
    "count" : 684,
    "min" : [ 0.0, 0.0 ],
    "max" : [ 1.0, 1.0 ],
    "byteOffset" : 0,
    "type" : "VEC2",
    "componentType" : 5126
  } ],
  "bufferViews" : [ {
    "buffer" : 0,
    "byteOffset" : 0,
    "byteLength" : 2685708,
    "target" : 34962
  }, {
    "buffer" : 0,
    "byteOffset" : 2685708,
    "byteLength" : 3580944,
    "target" : 34962
  }, {
    "buffer" : 0,
    "byteOffset" : 6266652,
    "byteLength" : 184824,
    "target" : 34962
  }, {
    "buffer" : 0,
    "byteOffset" : 6451476,
    "byteLength" : 123216,
    "target" : 34962
  }, {
    "buffer" : 0,
    "byteOffset" : 6574692,
    "byteLength" : 19008,
    "target" : 34962
  }, {
    "buffer" : 0,
    "byteOffset" : 6593700,
    "byteLength" : 12672,
    "target" : 34962
  }, {
    "buffer" : 0,
    "byteOffset" : 6606372,
    "byteLength" : 3780,
    "target" : 34962
  }, {
    "buffer" : 0,
    "byteOffset" : 6610152,
    "byteLength" : 2520,
    "target" : 34962
  }, {
    "buffer" : 0,
    "byteOffset" : 6612672,
    "byteLength" : 8208,
    "target" : 34962
  }, {
    "buffer" : 0,
    "byteOffset" : 6620880,
    "byteLength" : 5472,
    "target" : 34962
  } ],
  "buffers" : [ {
    "uri" : "data.bin",
    "byteLength" : 6626352
  } ],
  "extensionsUsed" : [ "KHR_materials_specular" ]
}