{
  "asset" : {
    "version" : "2.0",
    "generator" : "OSRS-Environment-Exporter"
  },
  "scene" : 0,
  "scenes" : [ {
    "nodes" : [ 2 ]
  } ],
  "nodes" : [ {
    "mesh" : 0
  }, {
    "mesh" : 1
  }, {
    "children" : [ 0, 1 ],
    "name" : "region_0_0_8495"
  } ],
  "meshes" : [ {
    "primitives" : [ {
      "attributes" : {
        "POSITION" : 0,
        "COLOR_0" : 1
      },
      "material" : 0,
      "mode" : 4
    } ]
  }, {
    "primitives" : [ {
      "attributes" : {
        "POSITION" : 2,
        "TEXCOORD_0" : 3
      },
      "material" : 1,
      "mode" : 4
    } ]
  } ],
  "materials" : [ {
    "name" : "rs_untextured",
    "pbrMetallicRoughness" : {
      "metallicFactor" : 0.0
    },
    "doubleSided" : true,
    "alphaMode" : "MASK",
    "alphaCutoff" : 0.2,
    "extensions" : {
      "KHR_materials_specular" : {
        "specularFactor" : 0.0,
        "specularColorFactor" : [ 0.0, 0.0, 0.0 ]
      }
    }
  }, {
    "name" : "rs_texture_1",
    "pbrMetallicRoughness" : {
      "baseColorTexture" : {
        "index" : 0
      },
      "metallicFactor" : 0.0
    },
    "doubleSided" : true,
    "alphaMode" : "MASK",
    "alphaCutoff" : 0.2,
    "extensions" : {
      "KHR_materials_specular" : {
        "specularFactor" : 0.0,
        "specularColorFactor" : [ 0.0, 0.0, 0.0 ]
      }
    }
  } ],
  "textures" : [ {
    "source" : 0
  } ],
  "images" : [ {
    "uri" : "./Textures/1.png"
  } ],
  "accessors" : [ {
    "bufferView" : 0,
    "count" : 21945,
    "min" : [ 35.5, -0.0, -64.0 ],
    "max" : [ 64.0, 8.71875, -47.0 ],
    "byteOffset" : 0,
    "type" : "VEC3",
    "componentType" : 5126
  }, {
    "bufferView" : 1,
    "count" : 21945,
    "min" : [ 0.0, 0.0, 0.0, 0.0039215684 ],
    "max" : [ 0.9882353, 0.9843137, 0.9843137, 1.0 ],
    "byteOffset" : 0,
    "type" : "VEC4",
    "componentType" : 5126
  }, {
    "bufferView" : 2,
    "count" : 23475,
    "min" : [ 0.0, -0.0, -64.0 ],
    "max" : [ 64.0, -0.0, -0.0 ],
    "byteOffset" : 0,
    "type" : "VEC3",
    "componentType" : 5126
  }, {
    "bufferView" : 3,
    "count" : 23475,
    "min" : [ 0.0, 0.0 ],
    "max" : [ 1.0, 1.0 ],
    "byteOffset" : 0,
    "type" : "VEC2",
    "componentType" : 5126
  } ],
  "bufferViews" : [ {
    "buffer" : 0,
    "byteOffset" : 0,
    "byteLength" : 263340,
    "target" : 34962
  }, {
    "buffer" : 0,
    "byteOffset" : 263340,
    "byteLength" : 351120,
    "target" : 34962
  }, {
    "buffer" : 0,
    "byteOffset" : 614460,
    "byteLength" : 281700,
    "target" : 34962
  }, {
    "buffer" : 0,
    "byteOffset" : 896160,
    "byteLength" : 187800,
    "target" : 34962
  } ],
  "buffers" : [ {
    "uri" : "data.bin",
    "byteLength" : 1083960
  } ],
  "extensionsUsed" : [ "KHR_materials_specular" ]
}